<?xml version="1.0" encoding="UTF-8" standalone="no"?>
<!-- Created with Inkscape (http://www.inkscape.org/) -->

<svg
   width="52.526363mm"
   height="52.526371mm"
   viewBox="0 0 52.526363 52.526371"
   version="1.1"
   id="svg1"
   inkscape:version="1.3.2 (091e20ef0f, 2023-11-25)"
   sodipodi:docname="logo.svg"
   inkscape:export-filename="io.github.tsmetana.mpk3-settings.svg"
   inkscape:export-xdpi="125.04616"
   inkscape:export-ydpi="125.04616"
   xmlns:inkscape="http://www.inkscape.org/namespaces/inkscape"
   xmlns:sodipodi="http://sodipodi.sourceforge.net/DTD/sodipodi-0.dtd"
   xmlns="http://www.w3.org/2000/svg"
   xmlns:svg="http://www.w3.org/2000/svg">
  <sodipodi:namedview
     id="namedview1"
     pagecolor="#505050"
     bordercolor="#eeeeee"
     borderopacity="1"
     inkscape:showpageshadow="0"
     inkscape:pageopacity="0"
     inkscape:pagecheckerboard="0"
     inkscape:deskcolor="#505050"
     inkscape:document-units="mm"
     showgrid="false"
     inkscape:zoom="1.4689925"
     inkscape:cx="240.64112"
     inkscape:cy="321.64902"
     inkscape:window-width="1440"
     inkscape:window-height="831"
     inkscape:window-x="0"
     inkscape:window-y="0"
     inkscape:window-maximized="1"
     inkscape:current-layer="layer1"
     showguides="false">
    <inkscape:grid
       id="grid2"
       units="px"
       originx="-27.736816"
       originy="-65.736813"
       spacingx="0.26458333"
       spacingy="0.26458334"
       empcolor="#0099e5"
       empopacity="0.30196078"
       color="#0099e5"
       opacity="0.14901961"
       empspacing="5"
       dotted="false"
       gridanglex="30"
       gridanglez="30"
       visible="false" />
  </sodipodi:namedview>
  <defs
     id="defs1" />
  <g
     inkscape:label="Layer 1"
     inkscape:groupmode="layer"
     id="layer1"
     transform="translate(-27.736817,-65.736815)">
    <rect
       style="fill:#1a1a1a;stroke:#a4a4a4;stroke-width:1;stroke-dasharray:none"
       id="rect1"
       width="24.526365"
       height="24.526367"
       x="28.236816"
       y="66.236816"
       ry="1"
       rx="1" />
    <rect
       style="fill:#1a1a1a;stroke:#a4a4a4;stroke-width:1;stroke-dasharray:none"
       id="rect1-2"
       width="24.526365"
       height="24.526367"
       x="28.236816"
       y="93.236816"
       ry="1"
       rx="1" />
    <rect
       style="fill:#1a1a1a;stroke:#a4a4a4;stroke-width:1;stroke-dasharray:none"
       id="rect1-2-7"
       width="24.526367"
       height="24.526365"
       x="55.236816"
       y="66.236816"
       ry="1"
       rx="1" />
    <rect
       style="fill:#1a1a1a;stroke:#ff0000;stroke-width:1;stroke-dasharray:none"
       id="rect1-5"
       width="24.526365"
       height="24.526367"
       x="55.236816"
       y="93.236816"
       ry="1"
       rx="1" />
    <path
       style="-inkscape-font-specification:'Ginza Display';fill:#f9f9f9;stroke-width:0.543254"
       d="m 56.493719,60.766109 h -1.03923 l -8.689118,8.689118 -8.717985,-8.689118 h -1.010362 q -0.158772,0 -0.274242,0.101036 -0.101036,0.101037 -0.101036,0.245374 v 15.530715 h -0.866025 q -0.23094,0 -0.404145,-0.173205 -0.173205,-0.173205 -0.173205,-0.404145 V 61.112519 q 0,-0.736121 0.534049,-1.255736 0.534049,-0.534049 1.284604,-0.534049 h 1.03923 q 0.476313,0 1.096965,0.57735 l 7.592152,7.50555 7.592153,-7.50555 q 0.620651,-0.57735 1.096965,-0.57735 h 1.03923 q 0.750555,0 1.284604,0.534049 0.534048,0.519615 0.534048,1.255736 v 14.953365 q 0,0.23094 -0.173205,0.404145 -0.173205,0.173205 -0.404145,0.173205 H 56.868996 V 61.112519 q 0,-0.144337 -0.11547,-0.245374 -0.101036,-0.101036 -0.259807,-0.101036 z M 54.703934,76.065884 V 64.605487 l -6.293115,6.23538 q -0.620651,0.57735 -1.096965,0.57735 h -1.096965 q -0.476314,0 -1.096965,-0.57735 l -6.293115,-6.23538 v 11.460397 q 0,0.23094 -0.173205,0.404145 -0.173205,0.173205 -0.404145,0.173205 H 37.383434 V 61.141387 l 8.862322,8.833455 h 1.068098 l 8.833455,-8.833455 v 15.501847 h -0.866025 q -0.23094,0 -0.404145,-0.173205 -0.173205,-0.173205 -0.173205,-0.404145 z"
       id="text2"
       transform="scale(0.86602528,1.1547007)"
       aria-label="M" />
    <path
       style="-inkscape-font-specification:'Ginza Display';fill:#f9f9f9;stroke-width:0.580764"
       d="m 64.421661,65.702361 h 16.973386 v 8.517553 H 64.421661 Z m 1.543035,10.801245 v 4.814269 q 0,0.246886 -0.185164,0.43205 -0.185164,0.185164 -0.43205,0.185164 h -0.925821 v -6.974518 h 16.047565 q 0.709796,0 1.188137,-0.462911 0.509201,-0.493771 0.509201,-1.141846 V 66.56646 q 0,-0.663505 -0.509201,-1.126415 -0.478341,-0.478341 -1.188137,-0.478341 H 63.650144 v 16.973385 h -0.925821 q -0.246886,0 -0.43205,-0.185164 -0.185164,-0.185164 -0.185164,-0.43205 V 64.035883 q 0,-0.246886 0.185164,-0.43205 0.185164,-0.185164 0.43205,-0.185164 h 17.744903 q 1.32701,0 2.283691,0.925821 0.956682,0.925821 0.956682,2.22197 v 6.789354 q 0,1.29615 -0.956682,2.221971 -0.956681,0.925821 -2.283691,0.925821 z m 0,-3.826727 H 79.852012 V 67.245396 H 65.964696 Z"
       id="text2-6"
       transform="scale(0.92581997,1.0801236)"
       aria-label="P" />
    <path
       style="-inkscape-font-specification:'Ginza Display';fill:#f9f9f9;stroke-width:0.592461"
       d="m 32.922936,90.196764 h 0.944469 v 18.889376 h -0.944469 q -0.251858,0 -0.440752,-0.18889 -0.188894,-0.18889 -0.188894,-0.44075 V 90.82641 q 0,-0.251859 0.188894,-0.440753 0.188894,-0.188893 0.440752,-0.188893 z m 2.675996,18.889376 h -0.944469 v -9.255793 h 6.989071 l 9.255796,9.255793 h -1.542633 q -0.629646,0 -1.259292,-0.62964 L 40.6361,100.99519 h -4.407522 v 7.46131 q 0,0.25186 -0.188894,0.44075 -0.188894,0.18889 -0.440752,0.18889 z M 48.915945,90.196764 h 1.51115 l -8.815044,8.846526 h -6.957588 v -8.846526 h 0.944469 q 0.251858,0 0.440752,0.188893 0.188894,0.188894 0.188894,0.440753 v 7.052035 h 4.37604 l 7.052035,-7.052035 q 0.629646,-0.629646 1.259292,-0.629646 z m -6.737212,9.224313 9.192831,-9.224313 h 0.912987 q 0.472234,0 0.645387,0.204635 0.188894,0.204635 0.01574,0.425011 l -8.594668,8.594667 9.03542,9.035423 q 0.173153,0.22037 -0.01574,0.42501 -0.173152,0.20463 -0.645387,0.20463 h -0.881504 z"
       id="text3"
       transform="scale(0.94446865,1.0587964)"
       aria-label="K" />
    <path
       style="-inkscape-font-specification:'Ginza Display';fill:#f9f9f9;stroke-width:0.627297"
       d="m 75.833371,112.9667 v -5.00001 q 0,-0.66667 -1.000002,-1.5 -0.966669,-0.83334 -2.233338,-0.96667 1.266669,-0.13334 2.233338,-0.96667 1.000002,-0.86667 1.000002,-1.53334 v -4.966674 q 0,-0.350001 -0.266668,-0.600001 -0.266667,-0.266667 -0.633334,-0.266667 H 57.5 v -1.000002 q 0,-0.266667 0.200001,-0.466668 0.2,-0.2 0.466667,-0.2 H 75.43337 q 0.850001,0 1.450003,0.616668 0.616668,0.616668 0.616668,1.483336 v 5.666678 q 0,0.86667 -0.616668,1.48334 -0.600002,0.61666 -1.450003,0.61666 v 0.13334 q 0.850001,0 1.450003,0.61667 0.616668,0.61666 0.616668,1.48333 v 5.80001 q 0,0.86667 -0.616668,1.48334 -0.600002,0.61667 -1.450003,0.61667 H 58.166668 q -0.266667,0 -0.466667,-0.2 Q 57.5,115.10004 57.5,114.83337 v -1 h 17.433369 q 0.383334,0 0.633334,-0.25 0.266668,-0.25 0.266668,-0.61667 z m -2.466672,-5.43334 H 59.500004 q -0.266667,0 -0.466667,-0.20001 -0.200001,-0.2 -0.200001,-0.46666 v -0.96667 h 13.833361 q 0.766669,0 1.550004,0.75 0.783335,0.73334 0.783335,1.31667 v 5.06668 H 57.5 v -1.03334 q 0,-0.26667 0.200001,-0.46667 0.2,-0.2 0.466667,-0.2 h 15.200031 z m 0,-7.866687 H 58.166668 q -0.266667,0 -0.466667,-0.200001 Q 57.5,99.266672 57.5,99.000005 v -1.033336 h 17.500036 v 5.033341 q 0,0.61667 -0.783335,1.35001 -0.766669,0.71666 -1.550004,0.71666 H 58.833336 v -1.03333 q 0,-0.26667 0.200001,-0.46667 0.2,-0.2 0.466667,-0.2 h 13.866695 z"
       id="text4"
       aria-label="3" />
  </g>
</svg>
