<?xml version="1.0" encoding="UTF-8" standalone="no"?>
<!-- Created with Inkscape (http://www.inkscape.org/) -->

<svg
   width="52.526363mm"
   height="52.526371mm"
   viewBox="0 0 52.526363 52.526371"
   version="1.1"
   id="svg1"
   inkscape:version="1.3.2 (091e20ef0f, 2023-11-25)"
   sodipodi:docname="io.github.tsmetana.mpk3-settings.svg"
   inkscape:export-filename="io.github.tsmetana.mpk3-settings.svg"
   inkscape:export-xdpi="125.04616"
   inkscape:export-ydpi="125.04616"
   xmlns:inkscape="http://www.inkscape.org/namespaces/inkscape"
   xmlns:sodipodi="http://sodipodi.sourceforge.net/DTD/sodipodi-0.dtd"
   xmlns="http://www.w3.org/2000/svg"
   xmlns:svg="http://www.w3.org/2000/svg">
  <sodipodi:namedview
     id="namedview1"
     pagecolor="#505050"
     bordercolor="#eeeeee"
     borderopacity="1"
     inkscape:showpageshadow="0"
     inkscape:pageopacity="0"
     inkscape:pagecheckerboard="0"
     inkscape:deskcolor="#505050"
     inkscape:document-units="mm"
     showgrid="false"
     inkscape:zoom="2.7371462"
     inkscape:cx="51.330835"
     inkscape:cy="103.20969"
     inkscape:window-width="1440"
     inkscape:window-height="831"
     inkscape:window-x="0"
     inkscape:window-y="0"
     inkscape:window-maximized="1"
     inkscape:current-layer="layer1"
     showguides="false">
    <inkscape:grid
       id="grid2"
       units="px"
       originx="-27.736816"
       originy="-65.736813"
       spacingx="0.26458333"
       spacingy="0.26458334"
       empcolor="#0099e5"
       empopacity="0.30196078"
       color="#0099e5"
       opacity="0.14901961"
       empspacing="5"
       dotted="false"
       gridanglex="30"
       gridanglez="30"
       visible="false" />
  </sodipodi:namedview>
  <defs
     id="defs1" />
  <g
     inkscape:label="Layer 1"
     inkscape:groupmode="layer"
     id="layer1"
     transform="translate(-27.736817,-65.736815)">
    <rect
       style="fill:#1a1a1a;stroke:#a4a4a4;stroke-width:1;stroke-dasharray:none"
       id="rect1"
       width="24.526365"
       height="24.526367"
       x="28.236816"
       y="66.236816"
       ry="1"
       rx="1" />
    <rect
       style="fill:#1a1a1a;stroke:#a4a4a4;stroke-width:1;stroke-dasharray:none"
       id="rect1-2"
       width="24.526365"
       height="24.526367"
       x="28.236816"
       y="93.236816"
       ry="1"
       rx="1" />
    <rect
       style="fill:#1a1a1a;stroke:#a4a4a4;stroke-width:1;stroke-dasharray:none"
       id="rect1-2-7"
       width="24.526367"
       height="24.526365"
       x="55.236816"
       y="66.236816"
       ry="1"
       rx="1" />
    <rect
       style="fill:#1a1a1a;stroke:#ff0000;stroke-width:1;stroke-dasharray:none"
       id="rect1-5"
       width="24.526365"
       height="24.526367"
       x="55.236816"
       y="93.236816"
       ry="1"
       rx="1" />
    <path
       style="-inkscape-font-specification:'Ginza Display';fill:#f9f9f9;stroke-width:0.543254"
       d="m 56.493719,60.766109 h -1.03923 L 46.765371,74.496216 38.047386,60.766109 h -1.010362 c -0.105848,0 -0.197262,0.03368 -0.274242,0.101036 -0.06736,0.06736 -0.101036,0.149149 -0.101036,0.245374 v 15.530715 h -0.866025 c -0.15396,0 -0.288675,-0.05774 -0.404145,-0.173205 -0.11547,-0.11547 -0.173205,-0.250185 -0.173205,-0.404145 V 61.112519 c 0,-0.490747 0.178016,-0.909326 0.534049,-1.255736 0.356033,-0.356033 0.784234,-0.534049 1.284604,-0.534049 h 1.03923 c 0.317542,0 0.683197,0.19245 1.096965,0.57735 l 7.592152,12.546539 7.592153,-12.546539 c 0.413767,-0.3849 0.779422,-0.57735 1.096965,-0.57735 h 1.03923 c 0.50037,0 0.928571,0.178016 1.284604,0.534049 0.356032,0.34641 0.534048,0.764989 0.534048,1.255736 v 14.953365 c 0,0.15396 -0.05774,0.288675 -0.173205,0.404145 -0.11547,0.11547 -0.250185,0.173205 -0.404145,0.173205 H 56.868996 V 61.112519 c 0,-0.09622 -0.03849,-0.178016 -0.11547,-0.245374 -0.06736,-0.06736 -0.15396,-0.101036 -0.259807,-0.101036 z M 54.703934,76.065884 V 64.605487 l -6.293115,11.276369 c -0.413767,0.3849 -0.779422,0.57735 -1.096965,0.57735 h -1.096965 c -0.317543,0 -0.683198,-0.19245 -1.096965,-0.57735 L 38.826809,64.605487 v 11.460397 c 0,0.15396 -0.05773,0.288675 -0.173205,0.404145 -0.11547,0.11547 -0.250185,0.173205 -0.404145,0.173205 H 37.383434 V 61.141387 l 8.862322,13.874444 h 1.068098 l 8.833455,-13.874444 v 15.501847 h -0.866025 c -0.15396,0 -0.288675,-0.05774 -0.404145,-0.173205 -0.11547,-0.11547 -0.173205,-0.250185 -0.173205,-0.404145 z"
       id="text2"
       transform="scale(0.86602528,1.1547007)"
       aria-label="M"
       sodipodi:nodetypes="scccscscsssscsscccsscsssscscssccssccsssccccccsss" />
    <path
       style="-inkscape-font-specification:'Ginza Display';fill:#f9f9f9;stroke-width:0.580764"
       d="m 64.421661,65.702361 h 16.973386 v 6.557901 H 64.421661 Z m 1.543035,8.841593 v 6.773921 c 0,0.164591 -0.06172,0.308607 -0.185164,0.43205 -0.123443,0.123443 -0.267459,0.185164 -0.43205,0.185164 h -0.925821 v -8.93417 h 16.047565 c 0.473197,0 0.869243,-0.154304 1.188137,-0.462911 0.339467,-0.329181 0.509201,-0.709796 0.509201,-1.141846 V 66.56646 c 0,-0.442337 -0.169734,-0.817808 -0.509201,-1.126415 -0.318894,-0.318894 -0.71494,-0.478341 -1.188137,-0.478341 H 63.650144 v 16.973385 h -0.925821 c -0.164591,0 -0.308607,-0.06172 -0.43205,-0.185164 -0.123443,-0.123443 -0.185164,-0.267459 -0.185164,-0.43205 V 64.035883 c 0,-0.164591 0.06172,-0.308607 0.185164,-0.43205 0.123443,-0.123443 0.267459,-0.185164 0.43205,-0.185164 h 17.744903 c 0.884673,0 1.645904,0.308607 2.283691,0.925821 0.637788,0.617214 0.956682,1.357871 0.956682,2.22197 v 4.829702 c 0,0.8641 -0.318894,1.604757 -0.956682,2.221971 -0.637787,0.617214 -1.399018,0.925821 -2.283691,0.925821 z m 0,-3.826727 H 79.852012 V 67.245396 H 65.964696 Z"
       id="text2-6"
       transform="scale(0.92581997,1.0801236)"
       aria-label="P"
       sodipodi:nodetypes="ccccccsssccscsscsccsssssssssssscccccc" />
    <path
       style="-inkscape-font-specification:'Ginza Display';fill:#f9f9f9;stroke-width:0.592461"
       d="m 32.922936,90.196764 h 0.944469 v 18.889376 h -0.944469 c -0.167905,0 -0.314823,-0.063 -0.440752,-0.18889 -0.125929,-0.12593 -0.188894,-0.27284 -0.188894,-0.44075 V 90.82641 c 0,-0.167906 0.06296,-0.314824 0.188894,-0.440753 0.125929,-0.125929 0.272847,-0.188893 0.440752,-0.188893 z m 2.675996,18.889376 h -0.944469 v -9.255793 h 5.308232 l 10.936635,9.255793 h -1.542633 c -0.419764,0 -0.839528,-0.20988 -1.259292,-0.62964 l -9.142144,-7.46131 h -2.726683 v 7.46131 c 0,0.16791 -0.06296,0.31482 -0.188894,0.44075 -0.125929,0.12593 -0.272847,0.18889 -0.440752,0.18889 z M 48.915945,90.196764 h 1.51115 L 39.931212,99.04329 h -5.276749 v -8.846526 h 0.944469 c 0.167905,0 0.314823,0.06296 0.440752,0.188893 0.125929,0.125929 0.188894,0.272847 0.188894,0.440753 v 7.052035 h 2.695201 l 8.732874,-7.052035 c 0.467485,-0.377507 0.839528,-0.629646 1.259292,-0.629646 z m -8.418051,9.224313 10.87367,-9.224313 h 0.912987 c 0.314823,0 0.529952,0.06821 0.645387,0.204635 0.125929,0.136423 0.131176,0.278094 0.01574,0.425011 L 42.670171,99.421077 53.38643,108.4565 c 0.115435,0.14691 0.110189,0.28858 -0.01574,0.42501 -0.115435,0.13642 -0.330564,0.20463 -0.645387,0.20463 h -0.881504 z"
       id="text3"
       transform="scale(0.94446865,1.0587964)"
       aria-label="K"
       sodipodi:nodetypes="sccsssssssccccscccssssccccsssccssccscccccscc" />
    <path
       style="-inkscape-font-specification:'Ginza Display';fill:#f9f9f9;stroke-width:0.627297"
       d="m 75.833371,112.9667 v -5.00001 q 0,-0.66667 -1.000002,-1.5 -0.966669,-0.83334 -2.233338,-0.96667 1.266669,-0.13334 2.233338,-0.96667 1.000002,-0.86667 1.000002,-1.53334 v -4.966674 q 0,-0.350001 -0.266668,-0.600001 -0.266667,-0.266667 -0.633334,-0.266667 H 57.5 v -1.000002 q 0,-0.266667 0.200001,-0.466668 0.2,-0.2 0.466667,-0.2 H 75.43337 q 0.850001,0 1.450003,0.616668 0.616668,0.616668 0.616668,1.483336 v 5.666678 q 0,0.86667 -0.616668,1.48334 -0.600002,0.61666 -1.450003,0.61666 v 0.13334 q 0.850001,0 1.450003,0.61667 0.616668,0.61666 0.616668,1.48333 v 5.80001 q 0,0.86667 -0.616668,1.48334 -0.600002,0.61667 -1.450003,0.61667 H 58.166668 q -0.266667,0 -0.466667,-0.2 Q 57.5,115.10004 57.5,114.83337 v -1 h 17.433369 q 0.383334,0 0.633334,-0.25 0.266668,-0.25 0.266668,-0.61667 z m -2.466672,-5.43334 H 59.500004 q -0.266667,0 -0.466667,-0.20001 -0.200001,-0.2 -0.200001,-0.46666 v -0.96667 h 13.833361 q 0.766669,0 1.550004,0.75 0.783335,0.73334 0.783335,1.31667 v 5.06668 H 57.5 v -1.03334 q 0,-0.26667 0.200001,-0.46667 0.2,-0.2 0.466667,-0.2 h 15.200031 z m 0,-7.866687 H 58.166668 q -0.266667,0 -0.466667,-0.200001 Q 57.5,99.266672 57.5,99.000005 v -1.033336 h 17.500036 v 5.033341 q 0,0.61667 -0.783335,1.35001 -0.766669,0.71666 -1.550004,0.71666 H 58.833336 v -1.03333 q 0,-0.26667 0.200001,-0.46667 0.2,-0.2 0.466667,-0.2 h 13.866695 z"
       id="text4"
       aria-label="3" />
  </g>
</svg>
